<svg width="17" height="21" viewBox="0 0 17 21" fill="none" xmlns="http://www.w3.org/2000/svg">
<path d="M8.49994 4.00556H8.49989C7.70461 4.00556 6.92722 4.24313 6.26603 4.6882C5.60484 5.13326 5.08956 5.76581 4.7853 6.50581C4.48104 7.24581 4.40143 8.06006 4.55654 8.84561C4.71165 9.63116 5.09451 10.3528 5.65677 10.9192C6.21904 11.4856 6.93545 11.8714 7.71544 12.0277C8.49543 12.184 9.30391 12.1038 10.0386 11.7972C10.7733 11.4906 11.4012 10.9715 11.843 10.3055C12.2847 9.63947 12.5205 8.85649 12.5205 8.05556V8.0555C12.5193 6.98188 12.0954 5.9525 11.3417 5.19323C10.588 4.43394 9.56601 4.00677 8.49994 4.00556ZM8.49983 11.1167C7.89903 11.1167 7.31169 10.9372 6.81208 10.6009C6.31245 10.2646 5.92298 9.7865 5.69297 9.22712C5.46297 8.66773 5.40278 8.05217 5.52004 7.4583C5.6373 6.86443 5.92673 6.31898 6.35166 5.8909C6.77659 5.46282 7.31794 5.17134 7.90723 5.05325C8.49651 4.93517 9.10733 4.99577 9.66245 5.22741C10.2176 5.45905 10.6921 5.85135 11.026 6.35475C11.3599 6.85815 11.5381 7.45001 11.5381 8.0555C11.5372 8.86722 11.2167 9.64535 10.6471 10.2192C10.0775 10.793 9.30524 11.1158 8.49983 11.1167Z" fill="#2FBEAD" stroke="#2FBEAD" stroke-width="0.1"/>
<path d="M0.95 8.0555V8.05556C0.95 10.9166 2.6865 13.9431 4.45167 16.2823C6.21847 18.6237 8.0219 20.2866 8.16997 20.4218L8.20369 20.3849L8.16998 20.4218C8.26032 20.5043 8.37795 20.55 8.5 20.55C8.62205 20.55 8.73968 20.5043 8.83002 20.4218L8.79631 20.3849L8.83003 20.4218C8.9781 20.2866 10.7815 18.6237 12.5483 16.2823C14.3135 13.9431 16.05 10.9166 16.05 8.05556V8.0555C16.0477 6.03921 15.2517 4.10608 13.8363 2.68024C12.4209 1.25438 10.5019 0.45227 8.50006 0.45L8.49994 0.45C6.49815 0.452288 4.57907 1.2544 3.16371 2.68026C1.74835 4.1061 0.952271 6.03922 0.95 8.0555ZM8.49988 19.3741C7.8177 18.7079 6.19686 17.0497 4.73585 14.9855C3.24796 12.8832 1.93235 10.3687 1.93235 8.05556C1.93235 6.30059 2.62439 4.61757 3.8561 3.37674C5.0878 2.13591 6.75827 1.43889 8.5 1.43889C10.2417 1.43889 11.9122 2.13591 13.1439 3.37674C14.3756 4.61757 15.0676 6.30059 15.0676 8.05556C15.0676 10.3667 13.752 12.881 12.264 14.9837C10.803 17.0484 9.18206 18.7075 8.49988 19.3741Z" fill="#2FBEAD" stroke="#2FBEAD" stroke-width="0.1"/>
</svg>
