<svg xmlns="http://www.w3.org/2000/svg" width="88" height="60" fill="none" viewBox="0 0 88 60">
    <path fill="#2FBEAD" fill-rule="evenodd" d="M85.904 47.473L73.391 34.959c-.537-.538-1.489-.538-2.027 0l-1.013 1.013-2.95-2.949a18.49 18.49 0 0 0 2.847-9.85c0-9.769-7.56-17.791-17.135-18.561-2.337-2.855-5.316-4.377-8.67-4.377-5.08 0-7.828 1.397-10.252 2.63-1.836.934-3.285 1.67-5.519 1.67-2.237 0-4.3-1.044-6.484-2.153l-.011-.005C19.25.893 16.225-.64 12.557.277 5.164 2.118 0 10.352 0 20.304c0 6.459 2.223 9.625 4.577 12.978v.001l.004.005c1.48 2.109 3.01 4.288 4.094 7.54.972 2.925 1.22 5.358 1.44 7.504v.006l.001.003c.38 3.721.708 6.934 5.013 9.087.973.486 1.894.73 2.755.73.644 0 1.253-.136 1.827-.407 2.881-1.365 3.854-5.67 4.883-10.229.907-4.021 1.937-8.58 4.078-8.58 2.285 0 3.454 4.498 4.484 8.465v.003c1.12 4.312 2.178 8.385 4.913 9.868 1.17.633 2.504.712 3.96.226 6.025-2.012 6.13-7.599 6.228-12.744l.01-.544c.019-.94.049-1.835.096-2.711 1.057.19 2.138.304 3.248.304 3.545 0 6.85-1.012 9.674-2.738l2.983 2.984-1.014 1.014c-.56.56-.56 1.467 0 2.027l12.513 12.514a7.124 7.124 0 0 0 5.07 2.1 7.125 7.125 0 0 0 5.069-2.1c2.792-2.795 2.792-7.341-.002-10.138zM45.4 44.16c-.117 5.764-.463 9.354-4.28 10.627-.905.304-1.394.13-1.684-.029-1.695-.922-2.46-3.946-3.226-6.98-.092-.364-.184-.727-.278-1.088-1.354-5.218-2.757-10.615-7.26-10.615-4.432 0-5.673 5.493-6.873 10.808l-.002.008c-.794 3.516-1.695 7.5-3.315 8.27l-.002.002c-.192.088-.767.354-2.07-.298-2.894-1.448-3.077-3.242-3.441-6.814v-.003c-.223-2.181-.5-4.896-1.573-8.125-1.219-3.653-2.946-6.114-4.472-8.285l-.004-.005c-2.174-3.1-4.053-5.778-4.053-11.328 0-10.073 5.382-16 10.384-17.246 2.635-.652 4.955.519 7.641 1.88l.008.005c2.385 1.209 4.851 2.459 7.773 2.459 2.921 0 4.901-1.006 6.816-1.981 2.243-1.142 4.56-2.32 8.953-2.32 1.736 0 3.312.55 4.716 1.614-9.12 1.207-16.185 9.014-16.185 18.457 0 8.15 5.266 15.077 12.569 17.602a72.285 72.285 0 0 0-.142 3.385zm-9.56-20.987c0-8.695 7.076-15.77 15.77-15.77 8.695 0 15.77 7.075 15.77 15.77s-7.075 15.77-15.77 15.77c-8.694 0-15.77-7.074-15.77-15.77zm30.107 12.452L68.322 38l-2.027 2.029-2.375-2.376 2.027-2.027zm17.93 19.96c-1.624 1.622-4.457 1.625-6.083 0l-11.499-11.5 1.012-1.012.002-.002 1.013-1.013 4.056-4.056 11.5 11.5a4.308 4.308 0 0 1 0 6.082zM13.803 7.504c-8.038 3.215-8.24 13.953-6.562 18.988a1.433 1.433 0 1 0 2.72-.907c-1.166-3.496-1.407-12.893 4.907-15.42a1.433 1.433 0 1 0-1.065-2.661zm39.628 14.53h3.584a1.433 1.433 0 1 1 0 2.867h-3.584v3.584a1.433 1.433 0 1 1-2.867 0v-3.584H46.98a1.433 1.433 0 1 1 0-2.867h3.584V18.45a1.433 1.433 0 1 1 2.867 0v3.584z" clip-rule="evenodd"/>
</svg>
