<svg xmlns="http://www.w3.org/2000/svg" width="80" height="81" fill="none" viewBox="0 0 80 81">
    <path fill="#2FBEAD" fill-rule="evenodd" d="M5.952 42.507c.244.215.562.328.887.312a1.25 1.25 0 0 0 .888-.312l3.938-4 .475.75a4.3 4.3 0 0 0 2.788 1.924 4.364 4.364 0 0 0 3.375-.687 77.496 77.496 0 0 0 2.55-1.75l2.568 2.57a4.314 4.314 0 0 0-.117 4.843l1.25 1.95-5.588 5.589a1.25 1.25 0 0 0 0 1.763l5.588 5.588a1.252 1.252 0 0 0 1.763 0l3.95-3.95.476.75a4.291 4.291 0 0 0 2.788 1.925 4.365 4.365 0 0 0 3.375-.688 77.858 77.858 0 0 0 2.551-1.751l2.537 2.536a4.301 4.301 0 0 0-.15 4.878l1.25 1.963-5.588 5.588a1.25 1.25 0 0 0 0 1.763l5.638 5.588a1.244 1.244 0 0 0 .888.362 1.25 1.25 0 0 0 .875-.362l3.95-3.95.475.75a4.302 4.302 0 0 0 2.788 1.925 4.373 4.373 0 0 0 3.376-.688 77.51 77.51 0 0 0 22.178-22.253 4.376 4.376 0 0 0 .687-3.363 4.301 4.301 0 0 0-1.925-2.788l-.75-.475 3.95-3.95a1.251 1.251 0 0 0 0-1.763l-5.588-5.588a1.25 1.25 0 0 0-1.763 0l-5.575 5.65-1.963-1.25a4.31 4.31 0 0 0-4.838.113l-2.57-2.57a77.272 77.272 0 0 0 1.745-2.543 4.364 4.364 0 0 0 .688-3.375 4.29 4.29 0 0 0-1.926-2.788l-.75-.475 3.95-3.95a1.251 1.251 0 0 0 0-1.764l-5.588-5.588a1.25 1.25 0 0 0-1.762 0l-5.588 5.588-1.963-1.25a4.313 4.313 0 0 0-4.848.12l-2.56-2.56a77.496 77.496 0 0 0 1.757-2.56 4.365 4.365 0 0 0 .687-3.376 4.302 4.302 0 0 0-1.925-2.788l-.75-.475 4-3.95a1.25 1.25 0 0 0 0-1.763L36.857.364a1.25 1.25 0 0 0-1.763 0l-5.638 5.6-1.95-1.25a4.313 4.313 0 0 0-5.826 1.163A54.793 54.793 0 0 1 5.877 21.64a4.3 4.3 0 0 0-1.163 5.864l1.238 2-5.588 5.588a1.25 1.25 0 0 0 0 1.763l5.588 5.65zm49.881-1.027l2.456 2.457a54.794 54.794 0 0 1-14.36 14.332l-2.441-2.442A77.513 77.513 0 0 0 55.833 41.48zM37.231 22.895A77.517 77.517 0 0 1 22.883 37.24l2.457 2.457a54.74 54.74 0 0 0 14.342-14.351l-2.451-2.451zM6.839 39.806l-3.825-3.825 5.413-5.426a1.25 1.25 0 0 0 .175-1.55l-1.775-2.75a1.812 1.812 0 0 1 .475-2.5A57.709 57.709 0 0 0 23.754 7.301a1.813 1.813 0 0 1 2.5-.475l2.763 1.775a1.25 1.25 0 0 0 1.55-.175l5.414-5.413 3.813 3.825-4.163 4.163a1.252 1.252 0 0 0 .25 2l2.063 1.25a1.812 1.812 0 0 1 .812 1.176l.005.028.007.038a1.893 1.893 0 0 1-.337 1.397 75.258 75.258 0 0 1-21.615 21.528 1.888 1.888 0 0 1-1.45.3 1.81 1.81 0 0 1-1.176-.813l-1.25-2.063a1.252 1.252 0 0 0-1.938-.212L6.84 39.806zm18.603 18.59l-3.826-3.825 5.401-5.388a1.252 1.252 0 0 0 .175-1.55l-1.775-2.8a1.813 1.813 0 0 1 .475-2.501 57.632 57.632 0 0 0 16.415-16.365 1.813 1.813 0 0 1 2.5-.475l2.8 1.775a1.25 1.25 0 0 0 1.55-.175l5.414-5.413 3.825 3.825-4.163 4.163a1.25 1.25 0 0 0 .213 1.938l2.063 1.25a1.811 1.811 0 0 1 .812 1.176 1.888 1.888 0 0 1-.3 1.45 75.268 75.268 0 0 1-21.714 21.611l-.034.02-.04.022a1.954 1.954 0 0 1-.51.184 1.889 1.889 0 0 1-1.15-.125 1.8 1.8 0 0 1-.78-.684l-1.25-2.063a1.252 1.252 0 0 0-1.348-.543l-.04.01-.037.01-.044.015a1.25 1.25 0 0 0-.469.295l-4.163 4.163zm14.764 14.777L44.032 77l4.163-4.163a1.252 1.252 0 0 1 1.938.212l1.25 2.063a1.826 1.826 0 0 0 1.93.81 1.89 1.89 0 0 0 .695-.298 75.259 75.259 0 0 0 21.616-21.54 1.886 1.886 0 0 0 .3-1.45 1.828 1.828 0 0 0-.813-1.175l-2.063-1.25a1.25 1.25 0 0 1-.212-1.938l4.163-4.163-3.826-3.826-5.413 5.35a1.25 1.25 0 0 1-1.55.176l-2.8-1.775a1.813 1.813 0 0 0-2.501.475 57.705 57.705 0 0 1-16.415 16.427 1.814 1.814 0 0 0-.475 2.5l1.776 2.826a1.249 1.249 0 0 1-.175 1.55l-5.414 5.363zM51.67 71.36l1.25 2.15a61.918 61.918 0 0 0 15.227-12.626l-1.887-1.638A59.44 59.44 0 0 1 51.67 71.36zM15.353 36.943l-1.25-2.15a59.393 59.393 0 0 0 14.564-12.114l1.888 1.638a61.941 61.941 0 0 1-15.202 12.626zm17.415 16.015l1.25 2.15a61.896 61.896 0 0 0 15.177-12.601l-1.863-1.663a59.354 59.354 0 0 1-14.564 12.114z" clip-rule="evenodd"/>
</svg>
