<svg xmlns="http://www.w3.org/2000/svg" width="74" height="104" fill="none" viewBox="0 0 74 104">
    <path fill="#2FBEAD" fill-rule="evenodd" d="M53.384.134a1.349 1.349 0 0 1 1.8.63l8.77 18.212a1.349 1.349 0 0 1-2.432 1.17L52.754 1.935a1.349 1.349 0 0 1 .63-1.801zM49.32 17.09a1.349 1.349 0 1 0-1.496 2.245l9.106 6.07a1.35 1.35 0 1 0 1.496-2.245l-9.106-6.07zm20.774 13.719c-1.405-.916-3.286-.511-4.641 1.09-.321.38-.387.754-.38 1.527l.005.272c.018.733.043 1.814-.425 2.916-1.336 3.148-3.428 4.625-5.654 6.196-.502.354-1.011.714-1.52 1.098-.57.43-1.116.876-1.657 1.318-2.39 1.95-4.687 3.824-8.533 4.012-3.054.15-5.214-1.857-6.8-3.331l-.062-.058-.035-.032c-.85-.789-1.542-1.432-2.246-1.866-.674-.415-1.24-.562-1.83-.463-2.028.338-2.975.716-3.484 1.225-.45.45-.785 1.249-.785 3.178 0 .806.167 1.354.393 1.779.236.444.574.825 1.031 1.268.111.107.233.22.36.338.858.797 2.023 1.879 2.545 3.654.805 2.738 1.1 5.207.799 7.65-.301 2.442-1.186 4.768-2.612 7.233-1.175 2.031-3.544 4.344-4.33 5.088-.232.22-.474.425-.727.616-.937.708-3.958 2.932-6.371 3.967-3.38 1.449-6.437 1.102-8.94.818l-.173-.02c-2.623-.296-4.445-.433-6.165.757-.41.285-.647.567-.794.843a1.34 1.34 0 0 1-.17.435c-.093.34-.128.748-.126 1.273.001.214.01.455.021.719.046 1.146.11 2.708-.462 4.198-.544 1.416-1.447 2.499-2.143 3.334-.145.173-.28.336-.403.49-.74.927-1.137 1.639-1.077 2.699.063 1.097.299 1.913.688 2.62.396.719.992 1.4 1.883 2.17 1.866 1.613 3.598 1.537 6.478 1.412h.003c.428-.019.88-.039 1.362-.054 4.15-.133 6.518-1.62 9.861-3.72.907-.57 1.887-1.185 2.993-1.83 2.544-1.485 4.273-3.016 6.06-4.642l.295-.27c1.7-1.55 3.506-3.197 6.076-4.84.894-.571 1.662-1.083 2.363-1.55 2.775-1.85 4.495-2.995 8.751-4.334 1.312-.412 2.749-.67 4.08-.907.51-.092 1.005-.18 1.472-.274 1.772-.355 3.292-.8 4.532-1.671 1.45-1.02 2.304-1.994 2.885-3.073.597-1.108.951-2.406 1.287-4.17.645-3.386.72-5.974.797-8.598l.003-.092c.078-2.666.164-5.383.891-8.87.627-3.003 1.846-5.351 2.922-7.424v-.001c.202-.388.398-.765.584-1.136 1.192-2.37 2.067-4.57 1.865-7.6-.049-.727-.015-1.432.018-2.043l.008-.148c.03-.572.056-1.04.037-1.477-.038-.869-.234-1.328-.803-1.7zM6.323 78.82c-.073.05-.144.101-.213.153a4.11 4.11 0 0 1 .008-.18c.055-.84.363-1.638.688-2.081.019-.012.1-.06.302-.083.286-.033.655.008 1.003.135.355.128.573.303.671.436a.3.3 0 0 1 .07.188c-.022.098-.04.195-.057.291a7.79 7.79 0 0 0-2.472 1.14zm7.926-1.228c-.826-.094-1.69-.191-2.574-.212.314-.745.905-1.458 1.716-1.834.995-.461 2.65-.558 5.077 1.11a1.35 1.35 0 0 0 1.989-.546c.285-.618.858-1.494 1.59-1.977.345-.226.69-.344 1.048-.348.354-.003.835.105 1.46.521a1.349 1.349 0 0 0 1.938-.487c.43-.808 1.15-2.003 2.105-2.861.792-.711 1.622-1.096 2.556-.978-.994 1.229-2.2 2.416-2.775 2.961-.157.15-.323.289-.498.422-.968.73-3.74 2.753-5.808 3.64-2.719 1.166-5.16.89-7.739.599l-.008-.001-.077-.01zM34.498 62.25c-.214 1.737-.794 3.465-1.801 5.368a1.353 1.353 0 0 0-.253-.107c-2.368-.728-4.307.235-5.65 1.441-.844.76-1.518 1.666-2.015 2.45a4.722 4.722 0 0 0-1.708-.314c-.978.01-1.822.342-2.507.793-.755.497-1.354 1.16-1.802 1.796-2.475-1.335-4.703-1.414-6.506-.578a5.982 5.982 0 0 0-2.143 1.688 4.628 4.628 0 0 0-1.082-.559A4.995 4.995 0 0 0 6.8 73.95c-.714.082-1.575.373-2.138 1.123-.682.91-1.151 2.237-1.236 3.547-.068 1.051.104 2.269.794 3.282-.127.593-.152 1.174-.15 1.7.002.389.014.747.025 1.083.037 1.08.066 1.934-.288 2.856-.368.96-.928 1.638-1.603 2.454-.17.207-.349.422-.533.654-.88 1.105-1.778 2.477-1.66 4.534.081 1.433.404 2.654 1.018 3.768.606 1.101 1.455 2.023 2.481 2.909 2.733 2.362 5.61 2.215 8.45 2.07h.003c.415-.021.829-.042 1.241-.056 4.941-.158 8.012-2.098 11.459-4.275a87.317 87.317 0 0 1 2.668-1.641c2.803-1.635 4.705-3.328 6.517-4.978l.272-.248c1.71-1.559 3.365-3.067 5.736-4.583.964-.616 1.77-1.152 2.484-1.627 2.699-1.796 4.115-2.738 7.987-3.956 1.137-.358 2.303-.566 3.562-.79.55-.1 1.118-.2 1.71-.32 1.852-.37 3.835-.9 5.554-2.109 1.731-1.216 2.896-2.491 3.71-4.001.797-1.483 1.212-3.113 1.56-4.944.686-3.599.767-6.366.843-8.99l.004-.126c.077-2.65.16-5.162.835-8.398.545-2.61 1.574-4.599 2.643-6.666.21-.407.423-.816.633-1.234 1.27-2.526 2.395-5.246 2.146-8.991-.037-.548-.013-1.107.02-1.719l.009-.167c.03-.541.063-1.144.038-1.72-.06-1.347-.452-2.816-2.025-3.842-2.88-1.878-6.226-.695-8.175 1.608-.98 1.158-1.026 2.386-1.018 3.295l.004.315v.001c.011.77.018 1.255-.21 1.792-1.014 2.389-2.4 3.377-4.53 4.895-.545.388-1.138.81-1.786 1.3a76.52 76.52 0 0 0-1.98 1.56c-2.303 1.86-3.823 3.087-6.716 3.228-1.789.088-3.154-1.054-4.894-2.67l-.127-.119c-.77-.716-1.638-1.523-2.575-2.1-1.03-.635-2.257-1.066-3.69-.827-2.019.336-3.77.801-4.947 1.978-1.236 1.236-1.576 2.968-1.576 5.086 0 1.217.262 2.205.71 3.046.437.822 1.018 1.437 1.538 1.94.155.15.303.29.444.424.857.81 1.447 1.369 1.748 2.39.73 2.48.954 4.57.709 6.56zM72.166 7.622a1.349 1.349 0 1 0-2.668-.404l-1.686 11.13a1.349 1.349 0 1 0 2.668.404l1.686-11.13z" clip-rule="evenodd"/>
</svg>
