<svg xmlns="http://www.w3.org/2000/svg" width="93" height="96" fill="none" viewBox="0 0 93 96">
    <path fill="#2FBEAD" fill-rule="evenodd" d="M45.196 22.598c0 12.48-10.117 22.598-22.598 22.598C10.118 45.196 0 35.08 0 22.598 0 10.118 10.117 0 22.598 0c12.48 0 22.598 10.117 22.598 22.598zm-22.598 19.99c11.04 0 19.99-8.95 19.99-19.99s-8.95-19.99-19.99-19.99-19.99 8.95-19.99 19.99 8.95 19.99 19.99 19.99zM93 48.674c0 12.48-10.118 22.598-22.598 22.598-1.208 0-2.394-.095-3.551-.277a26.963 26.963 0 0 0-.338-2.709c1.257.249 2.558.379 3.889.379 11.04 0 19.99-8.95 19.99-19.991 0-11.04-8.95-19.99-19.99-19.99-10.87 0-19.713 8.674-19.984 19.478a26.757 26.757 0 0 0-2.57-.929c.744-11.81 10.557-21.157 22.554-21.157C82.882 26.075 93 36.192 93 48.673zm-26.075-11.93h-1.5v6.953h-6.953v9.954h6.953v6.953h9.954V53.65h6.953v-9.954h-6.953v-6.953h-8.454zm1.5 8.453v-5.453h3.954v6.953h6.953v3.954h-6.953v6.953h-3.954V50.65h-6.953v-3.954h6.953v-1.5zM62.58 73.01c0 12.481-10.118 22.599-22.599 22.599-12.48 0-22.598-10.118-22.598-22.599 0-12.48 10.118-22.598 22.598-22.598 12.481 0 22.599 10.118 22.599 22.598zM39.98 93c11.04 0 19.991-8.95 19.991-19.99 0-11.041-8.95-19.991-19.99-19.991-11.041 0-19.991 8.95-19.991 19.99S28.94 93 39.98 93zm-3.476-31.92h-1.5v6.953H28.05v9.953h6.954v6.953h9.953v-6.953h6.953v-9.953h-6.953V61.08h-8.453zm1.5 8.453v-5.454h3.953v6.954h6.953v3.953h-6.953v6.953h-3.953v-6.953H31.05v-3.953h6.954v-1.5zM19.12 10.668h-1.5v6.954h-6.953v9.953h6.954v6.953h9.953v-6.953h6.953v-9.953h-6.953v-6.954h-8.453zm1.5 8.454v-5.454h3.954v6.954h6.953v3.953h-6.953v6.953h-3.953v-6.953h-6.954v-3.953h6.954v-1.5z" clip-rule="evenodd"/>
</svg>
