<svg xmlns="http://www.w3.org/2000/svg" width="70" height="80" fill="none" viewBox="0 0 70 80">
    <path fill="#2FBEAD" fill-rule="evenodd" d="M62.9 27.11c-1.946-9.149-7.916-17.074-16.045-21.106a30.292 30.292 0 0 0-15.328-3.118C16.194 3.731 3.598 16.457 2.883 31.788c-.583 10.779 4.481 20.845 13.44 26.82.662.479.806 1.32.38 1.992-.48.662-1.322.803-1.995.373C4.893 54.428-.58 43.418.048 31.648l.001-.003c.378-8.178 3.837-15.92 9.63-21.774C15.535 4.014 23.213.49 31.39.05c5.795-.315 11.585.82 16.742 3.398l.003.001c8.928 4.401 15.477 13.022 17.555 23.098v.002l4.093 19.567.005.018c.526 1.813.056 3.794-1.279 5.129l-1.805 1.805-.014.017c-.382.458-.627 1.015-.627 1.662v9.263a6.507 6.507 0 0 1-6.527 6.527h-5.111a4.944 4.944 0 0 0-4.972 4.972v2.555c0 .81-.607 1.417-1.416 1.417-.81 0-1.417-.607-1.417-1.416V75.51a7.788 7.788 0 0 1 7.805-7.805h5.11a3.663 3.663 0 0 0 3.695-3.694v-9.263c0-1.401.523-2.683 1.456-3.677l1.783-1.783c.66-.66.81-1.626.573-2.414l-.036-.12-.014-.014L62.9 27.112v-.002zM33.344 9.57c13.14 0 23.776 10.637 23.776 23.777S46.484 57.123 33.344 57.123 9.568 46.486 9.568 33.347c0-13.14 10.637-23.776 23.776-23.776zm0 2.834c-11.52 0-20.943 9.423-20.943 20.943 0 11.52 9.424 20.943 20.943 20.943 11.52 0 20.943-9.424 20.943-20.943 0-11.52-9.423-20.943-20.943-20.943zm0 6.75c7.837 0 14.194 6.356 14.194 14.193S41.18 47.54 33.344 47.54c-7.837 0-14.193-6.356-14.193-14.193s6.356-14.194 14.193-14.194zm0 2.832a11.351 11.351 0 0 0-11.36 11.36c0 6.282 5.08 11.361 11.36 11.361 6.282 0 11.36-5.079 11.36-11.36 0-6.282-5.078-11.36-11.36-11.36zm4.611 11.36a4.61 4.61 0 1 1-9.221 0 4.61 4.61 0 0 1 9.221 0z" clip-rule="evenodd"/>
</svg>
