<svg xmlns="http://www.w3.org/2000/svg" width="68" height="85" fill="none" viewBox="0 0 68 85">
    <path fill="#2FBEAD" fill-rule="evenodd" d="M12.337 82.356h43.326c5.562 0 10.071-4.509 10.071-10.07v-59.95c0-5.561-4.509-10.07-10.07-10.07H12.336c-5.562 0-10.071 4.509-10.071 10.07v59.95c0 5.561 4.509 10.07 10.07 10.07zm43.326 2.014H12.337C5.662 84.37.252 78.96.252 72.285V12.337C.252 5.662 5.662.252 12.337.252h43.326c6.675 0 12.085 5.41 12.085 12.085v59.948c0 6.675-5.41 12.085-12.085 12.085zm-28.54-56.837c.328 1.365 1.548 2.354 2.92 2.354a1.945 1.945 0 0 0 1.911-1.79c.252-3.295 1.268-6.335 1.921-7.106.653.77 1.671 3.81 1.923 7.105.075 1 .914 1.787 1.923 1.791 1.358 0 2.58-.99 2.906-2.354l3.059-12.79c.639-2.668-.005-5.385-1.636-6.922-1.159-1.093-2.707-1.454-4.246-.987l-1.99.603a6.55 6.55 0 0 1-3.876 0l-1.992-.603c-1.539-.467-3.087-.106-4.246.987-1.631 1.537-2.272 4.254-1.636 6.922l3.059 12.79zm.193-17.998c.387-.363.823-.547 1.306-.547.205 0 .42.035.64.101l1.99.604a8.886 8.886 0 0 0 5.246 0l1.99-.604c.74-.223 1.394-.073 1.946.446.844.794 1.466 2.543.959 4.66l-3.059 12.791a.735.735 0 0 1-.24.392c-.222-1.999-1.203-8.857-4.219-8.857-3.014 0-3.997 6.858-4.218 8.857a.75.75 0 0 1-.24-.392l-3.06-12.792c-.507-2.116.118-3.865.96-4.66zM14.447 34.403a1.179 1.179 0 0 1 1.906 1.386l-5.427 7.461a1.178 1.178 0 0 1-1.805.121l-2.898-3.036a1.178 1.178 0 1 1 1.705-1.627l1.923 2.014 4.596-6.32zm1.646 15.16a1.178 1.178 0 0 0-1.646.26l-4.596 6.319-1.923-2.015a1.179 1.179 0 0 0-1.705 1.627l2.898 3.037a1.18 1.18 0 0 0 1.806-.121l5.426-7.462a1.178 1.178 0 0 0-.26-1.646zm-1.646 15.679a1.178 1.178 0 0 1 1.906 1.386l-5.427 7.461a1.178 1.178 0 0 1-1.805.121l-2.898-3.036a1.178 1.178 0 1 1 1.705-1.627l1.923 2.014 4.596-6.32zm5.428-28.822c0 .557.5 1.008 1.117 1.008h38.05c.616 0 1.116-.451 1.116-1.008 0-.556-.5-1.007-1.117-1.007h-38.05c-.616 0-1.116.452-1.116 1.007zm1.117 3.022h38.05c.616 0 1.116.45 1.116 1.007 0 .556-.5 1.007-1.117 1.007h-38.05c-.616 0-1.116-.451-1.116-1.007 0-.556.5-1.007 1.117-1.007zm38.05 12.084h-38.05c-.617 0-1.117.451-1.117 1.008 0 .556.5 1.007 1.117 1.007h38.05c.616 0 1.116-.451 1.116-1.007 0-.556-.5-1.008-1.117-1.008zm-38.05 4.029h38.05c.616 0 1.116.45 1.116 1.007 0 .556-.5 1.007-1.117 1.007h-38.05c-.616 0-1.116-.451-1.116-1.007 0-.556.5-1.007 1.117-1.007zm17.1 12.085h-17.3c-.506 0-.917.45-.917 1.007 0 .556.41 1.007.917 1.007h17.3c.507 0 .917-.451.917-1.007 0-.556-.41-1.007-.917-1.007zm-17.3 4.028h17.3c.507 0 .917.451.917 1.007 0 .556-.41 1.007-.917 1.007h-17.3c-.506 0-.917-.45-.917-1.007 0-.556.41-1.007.917-1.007z" clip-rule="evenodd"/>
    <path fill="#2FBEAD" d="M30.043 29.887v.252h.001l-.001-.252zm-2.92-2.354l-.245.059.245-.059zm4.831.563l.251.02-.25-.02zm1.921-7.105l.192-.163-.192-.227-.192.227.192.163zm1.923 7.105l.251-.018-.25.018zm1.923 1.791l-.001.252h.001v-.252zm2.906-2.354l-.245-.058.245.058zm3.059-12.79l-.245-.059.245.059zM42.05 7.821l-.172.183.172-.183zm-4.246-.987l-.073-.241.073.24zm-1.99.603l-.072-.24.073.24zm-3.876 0l.073-.24-.073.24zm-1.992-.603l-.073.24.073-.24zM25.7 7.82l.172.184-.172-.184zm-1.636 6.922l-.245.058.245-.058zm3.252-5.208l-.172-.184.172.184zm1.947-.446l.073-.24h-.001l-.072.24zm1.989.604l-.073.24.073-.24zm5.246 0l-.073-.241.073.24zm1.99-.604l-.074-.24.073.24zm1.946.446l.172-.183-.172.183zm.959 4.66l-.245-.06.245.06zm-3.059 12.791l-.245-.058v.002l.245.056zm-.24.392l-.25.027.052.472.36-.308-.162-.191zm-8.438 0l-.163.191.362.308.052-.472-.25-.027zm-.24-.392l-.245.059v.002l.245-.06zm-3.059-12.792l.245-.058-.245.058zM16.093 34.143l.148-.204-.148.204zm-1.646.26l.204.148-.204-.148zm1.906 1.386l-.204-.148.204.148zm-5.427 7.461l-.203-.148.204.148zm-.874.483l-.017-.251h-.001l.018.251zm-.93-.362l-.183.174.182-.174zm-2.899-3.036l.183-.174-.183.174zm.04-1.666l-.175-.182.174.182zm1.665.039l-.182.174.182-.174zm1.923 2.014l-.182.174.208.218.178-.243-.204-.149zm4.596 9.1l.204.148-.204-.148zm1.646-.26l.148-.203-.148.203zm-6.242 6.58l-.182.174.208.218.178-.244-.204-.148zm-1.923-2.015l.182-.174-.182.174zm-1.666-.038l-.174-.183.174.183zm-.039 1.665l-.182.174.182-.174zm2.898 3.037l-.182.173.182-.173zm.931.361l-.016-.25h-.002l.018.25zm.875-.482l-.204-.148.204.148zm5.426-7.462l-.204-.148.204.148zm-.26 13.774l.148-.204-.148.204zm-1.646.26l.204.148-.204-.148zm1.906 1.386l-.204-.148.204.148zm-5.427 7.461l-.203-.148.204.148zm-.874.483l.016.251-.016-.251zm-.93-.362l-.183.174.182-.174zm-2.899-3.036L6.406 71l-.183.174zm.04-1.666l-.175-.182.174.182zm1.665.039l-.182.174.182-.174zm1.923 2.014l-.182.174.208.218.178-.244-.204-.148zm45.812 10.543H12.337v.504h43.326v-.504zm9.82-9.819c0 5.423-4.397 9.82-9.82 9.82v.503c5.701 0 10.323-4.622 10.323-10.323h-.504zm0-59.948v59.948h.503V12.337h-.504zm-9.82-9.82c5.423 0 9.82 4.397 9.82 9.82h.503c0-5.701-4.622-10.323-10.323-10.323v.504zm-43.326 0h43.326v-.503H12.337v.504zm-9.82 9.82c0-5.423 4.397-9.82 9.82-9.82v-.503c-5.701 0-10.323 4.622-10.323 10.323h.504zm0 59.948V12.337h-.503v59.948h.504zm9.82 9.82c-5.423 0-9.82-4.397-9.82-9.82h-.503c0 5.701 4.622 10.323 10.323 10.323v-.504zm0 2.517h43.326v-.504H12.337v.504zM0 72.285C0 79.1 5.523 84.622 12.337 84.622v-.504C5.8 84.118.504 78.821.504 72.285H0zm0-59.948v59.948h.504V12.337H0zM12.337 0C5.523 0 0 5.523 0 12.337h.504C.504 5.8 5.8.504 12.337.504V0zm43.326 0H12.337v.504h43.326V0zM68 12.337C68 5.523 62.477 0 55.663 0v.504C62.2.504 67.497 5.8 67.497 12.337H68zm0 59.948V12.337h-.504v59.948H68zM55.663 84.622C62.477 84.622 68 79.099 68 72.285h-.504c0 6.535-5.297 11.833-11.833 11.833v.504zm-25.62-54.986c-1.25 0-2.374-.905-2.675-2.162l-.49.118c.354 1.473 1.672 2.547 3.165 2.547v-.503zm1.66-1.56c-.067.871-.8 1.556-1.661 1.56l.002.503a2.196 2.196 0 0 0 2.161-2.023l-.502-.04zm1.98-7.248c-.188.222-.386.585-.58 1.036a14.568 14.568 0 0 0-.58 1.663 23.13 23.13 0 0 0-.82 4.55l.502.039c.125-1.63.439-3.196.801-4.449.182-.626.374-1.171.56-1.605.189-.439.363-.745.501-.908l-.384-.326zm2.366 7.25a23.088 23.088 0 0 0-.82-4.551 14.576 14.576 0 0 0-.582-1.664c-.194-.45-.392-.813-.58-1.035l-.384.326c.138.163.313.47.501.908.186.434.38.979.561 1.605.363 1.253.677 2.82.802 4.449l.502-.039zm1.673 1.558a1.692 1.692 0 0 1-1.673-1.558l-.502.037a2.195 2.195 0 0 0 2.173 2.024l.002-.503zm2.66-2.161c-.3 1.256-1.425 2.16-2.66 2.16v.504c1.478 0 2.799-1.075 3.15-2.547l-.49-.117zm3.059-12.79l-3.059 12.79.49.117 3.059-12.79-.49-.118zm-1.563-6.68c1.55 1.46 2.186 4.076 1.563 6.68l.49.117c.654-2.733.004-5.55-1.708-7.164l-.345.367zm-4.001-.93c1.453-.44 2.908-.102 4 .93l.346-.367c-1.226-1.156-2.868-1.538-4.492-1.045l.146.482zm-1.99.603l1.99-.603-.146-.482-1.99.603.147.482zm-4.023 0a6.801 6.801 0 0 0 4.024 0l-.147-.482a6.298 6.298 0 0 1-3.73 0l-.147.482zm-1.99-.603l1.99.603.147-.482-1.992-.603-.146.482zm-4.002.93c1.093-1.032 2.548-1.37 4.001-.93l.146-.482c-1.624-.493-3.266-.11-4.492 1.045l.345.366zm-1.563 6.68c-.621-2.604.014-5.22 1.563-6.68l-.345-.367c-1.712 1.613-2.36 4.431-1.708 7.163l.49-.116zm3.059 12.79l-3.06-12.79-.489.117 3.06 12.79.489-.117zm1.254-18.739c-.554 0-1.05.213-1.478.615l.345.367c.345-.324.72-.478 1.133-.478v-.504zm.713.112a2.503 2.503 0 0 0-.713-.112v.504c.176 0 .366.03.57.09l.143-.482zm1.99.604l-1.989-.603-.146.481 1.989.604.146-.482zm5.1 0a8.635 8.635 0 0 1-5.1 0l-.146.482a9.139 9.139 0 0 0 5.392 0l-.146-.482zm1.99-.603l-1.99.603.146.482 1.99-.604-.147-.481zm2.191.502c-.618-.581-1.367-.752-2.192-.503l.146.482c.656-.198 1.217-.067 1.701.388l.345-.367zm1.032 4.902c.523-2.185-.11-4.033-1.032-4.901l-.345.366c.765.72 1.377 2.37.887 4.418l.49.117zm-3.059 12.792l3.059-12.792-.49-.117-3.059 12.792.49.117zm-.322.524a.986.986 0 0 0 .322-.526l-.49-.113a.483.483 0 0 1-.159.256l.327.383zm-4.382-8.796c.646 0 1.208.364 1.701 1.005.495.641.896 1.53 1.217 2.501.642 1.939.94 4.132 1.05 5.126l.5-.055c-.11-1.004-.413-3.24-1.072-5.23-.328-.993-.751-1.943-1.296-2.65-.546-.708-1.238-1.2-2.1-1.2v.503zm-3.968 8.632c.11-.994.409-3.187 1.05-5.126.322-.97.723-1.86 1.218-2.502.494-.64 1.055-1.004 1.7-1.004v-.504c-.861 0-1.554.494-2.099 1.201-.544.707-.968 1.657-1.296 2.65-.66 1.99-.962 4.226-1.074 5.23l.5.055zm-.735-.358a1 1 0 0 0 .321.522l.327-.383a.497.497 0 0 1-.16-.26l-.488.12zm-3.06-12.794l3.06 12.792.489-.117-3.059-12.792-.49.117zm1.032-4.901c-.92.868-1.555 2.715-1.032 4.9l.49-.117c-.49-2.047.124-3.697.887-4.417l-.346-.366zM16.24 33.939a1.43 1.43 0 0 0-1.997.316l.407.296a.927.927 0 0 1 1.294-.205l.296-.407zm.316 1.998a1.43 1.43 0 0 0-.316-1.998l-.296.407c.414.301.506.881.204 1.295l.408.296zm-5.427 7.461l5.427-7.461-.408-.296-5.426 7.461.407.296zm-1.061.586a1.43 1.43 0 0 0 1.061-.586l-.407-.296a.926.926 0 0 1-.688.38l.034.502zm-.095.004c.032 0 .064-.002.096-.004l-.036-.502a.81.81 0 0 1-.06.002v.504zm-1.035-.443c.271.283.645.443 1.035.443v-.504a.926.926 0 0 1-.67-.287l-.365.348zm-2.898-3.036l2.898 3.036.365-.348-2.898-3.036-.365.348zm.047-2.022a1.43 1.43 0 0 0-.047 2.022l.364-.348a.926.926 0 0 1 .03-1.31l-.347-.364zm2.022.047a1.43 1.43 0 0 0-2.022-.047l.348.364a.927.927 0 0 1 1.31.03l.364-.347zm1.923 2.015L8.11 38.534l-.364.348 1.923 2.014.364-.347zm4.21-6.294l-4.596 6.32.408.296 4.596-6.32-.407-.296zm.408 15.715a.927.927 0 0 1 1.294-.204l.296-.407a1.43 1.43 0 0 0-1.997.315l.407.296zm-4.596 6.32l4.596-6.32-.407-.296-4.597 6.32.408.296zM7.745 54.3l1.924 2.015.364-.348-1.923-2.015-.364.348zm-1.31-.03a.927.927 0 0 1 1.31.03l.365-.348a1.43 1.43 0 0 0-2.022-.047l.348.365zm-.03 1.31a.927.927 0 0 1 .03-1.31l-.347-.365a1.43 1.43 0 0 0-.047 2.022l.365-.347zm2.899 3.036L6.406 55.58l-.365.347 2.898 3.036.365-.347zm.67.286a.927.927 0 0 1-.67-.286l-.365.348c.271.283.645.442 1.035.442v-.504zm.06-.002a.81.81 0 0 1-.06.002v.504c.032 0 .064-.001.096-.004l-.036-.502zm.689-.38a.925.925 0 0 1-.688.38l.034.503a1.43 1.43 0 0 0 1.061-.586l-.407-.296zm5.426-7.461l-5.426 7.462.407.296 5.427-7.462-.408-.296zm-.204-1.294c.414.3.506.88.204 1.294l.408.296a1.43 1.43 0 0 0-.316-1.997l-.296.407zm.296 15.012a1.43 1.43 0 0 0-1.997.316l.407.296a.927.927 0 0 1 1.294-.205l.296-.407zm.316 1.998a1.43 1.43 0 0 0-.316-1.998l-.296.407c.414.301.506.88.204 1.295l.408.296zm-5.427 7.461l5.427-7.461-.408-.296-5.426 7.461.407.296zm-1.061.586a1.43 1.43 0 0 0 1.061-.586l-.407-.296a.926.926 0 0 1-.688.38l.034.502zm-.095.003c.032 0 .063 0 .094-.003l-.032-.502a.973.973 0 0 1-.062.002v.503zm-1.035-.442c.271.283.645.442 1.035.442v-.503a.927.927 0 0 1-.67-.287l-.365.348zm-2.898-3.036l2.898 3.036.365-.348L6.406 71l-.365.348zm.047-2.022a1.43 1.43 0 0 0-.047 2.022L6.405 71a.927.927 0 0 1 .03-1.31l-.347-.364zm2.022.047a1.43 1.43 0 0 0-2.022-.047l.348.364a.927.927 0 0 1 1.31.03l.364-.347zm1.923 2.014L8.11 69.373l-.364.348 1.923 2.014.364-.348zm4.21-6.293l-4.596 6.32.408.295 4.596-6.32-.407-.295zm6.749-27.918c-.503 0-.865-.362-.865-.756h-.504c0 .72.638 1.26 1.369 1.26v-.504zm38.05 0h-38.05v.503h38.05v-.503zm.864-.756c0 .394-.362.756-.865.756v.503c.73 0 1.369-.54 1.369-1.259h-.504zm-.865-.755c.503 0 .865.362.865.755h.504c0-.719-.638-1.259-1.369-1.259v.504zm-38.05 0h38.05v-.504h-38.05v.504zm-.864.755c0-.393.362-.755.865-.755v-.504c-.731 0-1.369.54-1.369 1.26h.504zm38.914 2.77h-38.05v.503h38.05v-.503zm1.369 1.259c0-.72-.638-1.26-1.369-1.26v.504c.503 0 .865.363.865.756h.504zm-1.369 1.259c.73 0 1.369-.54 1.369-1.26h-.504c0 .394-.362.756-.865.756v.504zm-38.05 0h38.05v-.504h-38.05v.504zm-1.368-1.26c0 .72.638 1.26 1.369 1.26v-.504c-.503 0-.865-.362-.865-.755h-.504zm1.369-1.258c-.73 0-1.369.54-1.369 1.259h.504c0-.393.362-.756.865-.756v-.503zm0 12.588h38.05v-.503h-38.05v.503zm-.865.756c0-.394.362-.756.865-.756v-.503c-.73 0-1.369.54-1.369 1.259h.504zm.865.755c-.503 0-.865-.362-.865-.755h-.504c0 .719.638 1.258 1.369 1.258v-.503zm38.05 0h-38.05v.503h38.05v-.503zm.864-.755c0 .393-.362.755-.865.755v.503c.73 0 1.369-.54 1.369-1.258h-.504zm-.865-.756c.503 0 .865.362.865.756h.504c0-.72-.638-1.26-1.369-1.26v.504zm0 3.525h-38.05v.504h38.05v-.504zm1.369 1.259c0-.72-.638-1.259-1.369-1.259v.504c.503 0 .865.361.865.755h.504zM59.04 57.82c.73 0 1.369-.54 1.369-1.26h-.504c0 .394-.362.756-.865.756v.504zm-38.05 0h38.05v-.504h-38.05v.504zm-1.368-1.26c0 .72.638 1.26 1.369 1.26v-.504c-.503 0-.865-.362-.865-.755h-.504zm1.369-1.258c-.73 0-1.369.54-1.369 1.259h.504c0-.393.362-.755.865-.755v-.504zm-.2 12.588h17.3v-.503h-17.3v.503zm-.665.756c0-.44.32-.756.665-.756v-.503c-.667 0-1.169.586-1.169 1.259h.504zm.665.755c-.346 0-.665-.316-.665-.755h-.504c0 .672.502 1.259 1.17 1.259v-.504zm17.3 0h-17.3v.504h17.3v-.504zm.666-.755c0 .44-.32.755-.666.755v.504c.668 0 1.17-.587 1.17-1.26h-.504zm-.666-.756c.346 0 .666.316.666.756h.503c0-.673-.502-1.26-1.169-1.26v.504zm0 3.525h-17.3v.504h17.3v-.504zm1.17 1.26c0-.673-.502-1.26-1.17-1.26v.504c.346 0 .666.315.666.755h.503zm-1.17 1.258c.668 0 1.17-.587 1.17-1.259h-.504c0 .44-.32.755-.666.755v.504zm-17.3 0h17.3v-.504h-17.3v.504zm-1.169-1.259c0 .673.502 1.259 1.17 1.259v-.504c-.347 0-.666-.315-.666-.755h-.504zm1.17-1.259c-.668 0-1.17.586-1.17 1.26h.504c0-.44.32-.756.665-.756v-.504z"/>
</svg>
