<svg width="18" height="28" viewBox="0 0 18 28" fill="none" xmlns="http://www.w3.org/2000/svg">
<mask id="path-1-outside-1" maskUnits="userSpaceOnUse" x="0" y="0" width="18" height="28" fill="black">
<rect fill="white" width="18" height="28"/>
<path fill-rule="evenodd" clip-rule="evenodd" d="M13.3635 1H4.63648C2.632 1 1 2.62063 1 4.61115V23.3889C1 25.3794 2.632 27 4.63648 27H13.3635C15.368 27 17 25.3794 17 23.3889V4.61115C17 2.61936 15.368 1 13.3635 1ZM15.5459 23.3876C15.5459 24.5824 14.5667 25.5548 13.3635 25.5548H4.63648C3.43328 25.5548 2.45408 24.5824 2.45408 23.3876V4.61115C2.45408 3.41633 3.43328 2.44395 4.63648 2.44395H13.3635C14.5667 2.44395 15.5459 3.41633 15.5459 4.61115V23.3876ZM9.00047 24.8315C9.80353 24.8315 10.4545 24.185 10.4545 23.3876C10.4545 22.5901 9.80353 21.9436 9.00047 21.9436C8.1974 21.9436 7.54639 22.5901 7.54639 23.3876C7.54639 24.185 8.1974 24.8315 9.00047 24.8315ZM7.54491 3.16592H10.4544C10.8563 3.16592 11.1814 3.48878 11.1814 3.8879C11.1814 4.28702 10.8563 4.60987 10.4544 4.60987H7.54491C7.14299 4.60987 6.81787 4.28702 6.81787 3.8879C6.81787 3.48878 7.14299 3.16592 7.54491 3.16592Z"/>
</mask>
<path fill-rule="evenodd" clip-rule="evenodd" d="M13.3635 1H4.63648C2.632 1 1 2.62063 1 4.61115V23.3889C1 25.3794 2.632 27 4.63648 27H13.3635C15.368 27 17 25.3794 17 23.3889V4.61115C17 2.61936 15.368 1 13.3635 1ZM15.5459 23.3876C15.5459 24.5824 14.5667 25.5548 13.3635 25.5548H4.63648C3.43328 25.5548 2.45408 24.5824 2.45408 23.3876V4.61115C2.45408 3.41633 3.43328 2.44395 4.63648 2.44395H13.3635C14.5667 2.44395 15.5459 3.41633 15.5459 4.61115V23.3876ZM9.00047 24.8315C9.80353 24.8315 10.4545 24.185 10.4545 23.3876C10.4545 22.5901 9.80353 21.9436 9.00047 21.9436C8.1974 21.9436 7.54639 22.5901 7.54639 23.3876C7.54639 24.185 8.1974 24.8315 9.00047 24.8315ZM7.54491 3.16592H10.4544C10.8563 3.16592 11.1814 3.48878 11.1814 3.8879C11.1814 4.28702 10.8563 4.60987 10.4544 4.60987H7.54491C7.14299 4.60987 6.81787 4.28702 6.81787 3.8879C6.81787 3.48878 7.14299 3.16592 7.54491 3.16592Z" fill="url(#paint0_linear)"/>
<path d="M4.63648 1.1H13.3635V0.9H4.63648V1.1ZM1.1 4.61115C1.1 2.67652 2.68657 1.1 4.63648 1.1V0.9C2.57743 0.9 0.9 2.56474 0.9 4.61115H1.1ZM1.1 23.3889V4.61115H0.9V23.3889H1.1ZM4.63648 26.9C2.68657 26.9 1.1 25.3235 1.1 23.3889H0.9C0.9 25.4353 2.57743 27.1 4.63648 27.1V26.9ZM13.3635 26.9H4.63648V27.1H13.3635V26.9ZM16.9 23.3889C16.9 25.3235 15.3134 26.9 13.3635 26.9V27.1C15.4226 27.1 17.1 25.4353 17.1 23.3889H16.9ZM16.9 4.61115V23.3889H17.1V4.61115H16.9ZM13.3635 1.1C15.3135 1.1 16.9 2.67527 16.9 4.61115H17.1C17.1 2.56345 15.4225 0.9 13.3635 0.9V1.1ZM13.3635 25.6548C14.6213 25.6548 15.6459 24.6383 15.6459 23.3876H15.4459C15.4459 24.5265 14.5122 25.4548 13.3635 25.4548V25.6548ZM4.63648 25.6548H13.3635V25.4548H4.63648V25.6548ZM2.35408 23.3876C2.35408 24.6383 3.37871 25.6548 4.63648 25.6548V25.4548C3.48785 25.4548 2.55408 24.5265 2.55408 23.3876H2.35408ZM2.35408 4.61115V23.3876H2.55408V4.61115H2.35408ZM4.63648 2.34395C3.37871 2.34395 2.35408 3.36044 2.35408 4.61115H2.55408C2.55408 3.47221 3.48785 2.54395 4.63648 2.54395V2.34395ZM13.3635 2.34395H4.63648V2.54395H13.3635V2.34395ZM15.6459 4.61115C15.6459 3.36044 14.6213 2.34395 13.3635 2.34395V2.54395C14.5122 2.54395 15.4459 3.47221 15.4459 4.61115H15.6459ZM15.6459 23.3876V4.61115H15.4459V23.3876H15.6459ZM10.3545 23.3876C10.3545 24.1292 9.74896 24.7315 9.00047 24.7315V24.9315C9.8581 24.9315 10.5545 24.2409 10.5545 23.3876H10.3545ZM9.00047 22.0436C9.74896 22.0436 10.3545 22.646 10.3545 23.3876H10.5545C10.5545 22.5342 9.8581 21.8436 9.00047 21.8436V22.0436ZM7.64639 23.3876C7.64639 22.646 8.25197 22.0436 9.00047 22.0436V21.8436C8.14283 21.8436 7.44639 22.5342 7.44639 23.3876H7.64639ZM9.00047 24.7315C8.25197 24.7315 7.64639 24.1292 7.64639 23.3876H7.44639C7.44639 24.2409 8.14283 24.9315 9.00047 24.9315V24.7315ZM10.4544 3.06592H7.54491V3.26592H10.4544V3.06592ZM11.2814 3.8879C11.2814 3.43289 10.9108 3.06592 10.4544 3.06592V3.26592C10.8017 3.26592 11.0814 3.54467 11.0814 3.8879H11.2814ZM10.4544 4.70987C10.9108 4.70987 11.2814 4.34291 11.2814 3.8879H11.0814C11.0814 4.23113 10.8017 4.50987 10.4544 4.50987V4.70987ZM7.54491 4.70987H10.4544V4.50987H7.54491V4.70987ZM6.71787 3.8879C6.71787 4.34291 7.08842 4.70987 7.54491 4.70987V4.50987C7.19756 4.50987 6.91787 4.23113 6.91787 3.8879H6.71787ZM7.54491 3.06592C7.08842 3.06592 6.71787 3.43289 6.71787 3.8879H6.91787C6.91787 3.54467 7.19756 3.26592 7.54491 3.26592V3.06592Z" fill="url(#paint1_linear)" mask="url(#path-1-outside-1)"/>
<defs>
<linearGradient id="paint0_linear" x1="-3.92562" y1="33.8824" x2="26.5491" y2="33.5002" gradientUnits="userSpaceOnUse">
<stop stop-color="#2FBEAD"/>
<stop offset="1" stop-color="#2D9CDB"/>
</linearGradient>
<linearGradient id="paint1_linear" x1="-3.92562" y1="33.8824" x2="26.5491" y2="33.5002" gradientUnits="userSpaceOnUse">
<stop stop-color="#2FBEAD"/>
<stop offset="1" stop-color="#2D9CDB"/>
</linearGradient>
</defs>
</svg>
