<svg width="13" height="15" viewBox="0 0 13 15" fill="none" xmlns="http://www.w3.org/2000/svg">
<path d="M8.56279 15C7.65936 15 7.53485 13.8934 7.3627 12.361C7.26163 11.4622 7.02492 9.35773 6.50038 9.35773C6.00582 9.35773 5.7595 11.4464 5.6546 12.3381C5.47207 13.8828 5.34103 15 4.43722 15C2.86477 15 2.33101 12.5135 1.71271 9.63401C1.63317 9.26551 1.55439 8.89589 1.47254 8.53567C1.3684 8.07119 1.1655 7.72829 0.930713 7.33307C0.494561 6.59645 0 5.76121 0 4.02186C0 1.80409 1.84183 0 4.10597 0C4.97059 0 5.80408 0.266493 6.50038 0.759203C7.1963 0.266869 8.02941 0.000376913 8.89403 0.000376913C11.1582 0.000376913 13 1.80447 13 4.02186C13 5.76159 12.5054 6.59682 12.0693 7.33344C11.8345 7.72942 11.6316 8.07157 11.5275 8.53567C11.4464 8.89626 11.3668 9.26514 11.2873 9.63439C10.6698 12.5135 10.136 15 8.56279 15ZM4.10636 1.12958C2.47857 1.12958 1.15359 2.42704 1.15359 4.02186C1.15359 5.45745 1.5298 6.09357 1.92867 6.7662C2.18767 7.20396 2.4559 7.65677 2.59923 8.29364C2.68108 8.65725 2.76101 9.02989 2.84132 9.40252C3.14529 10.8182 3.68673 13.3397 4.2593 13.7985C4.36382 13.4428 4.44913 12.7194 4.50946 12.2086C4.72926 10.3428 4.97827 8.2289 6.50038 8.2289C8.05823 8.2289 8.29802 10.359 8.50937 12.238C8.56816 12.7649 8.6454 13.4504 8.74378 13.7963C9.31635 13.3322 9.85664 10.8163 10.1602 9.4029C10.2401 9.03026 10.3205 8.65762 10.4023 8.29364C10.5456 7.6579 10.8135 7.20433 11.0729 6.76696C11.4717 6.09395 11.8483 5.45783 11.8483 4.02261C11.8483 2.42817 10.5237 1.12996 8.89518 1.12996C8.15238 1.12996 7.44186 1.40436 6.89273 1.90196C6.67177 2.10258 6.33054 2.10258 6.10958 1.90196C5.55968 1.40398 4.84839 1.12958 4.10636 1.12958Z" fill="url(#paint0_linear)"/>
<defs>
<linearGradient id="paint0_linear" x1="-4.00207" y1="18.9706" x2="20.7548" y2="18.5333" gradientUnits="userSpaceOnUse">
<stop stop-color="#2FBEAD"/>
<stop offset="1" stop-color="#2D9CDB"/>
</linearGradient>
</defs>
</svg>
